<?xml version="1.0" encoding="utf-8"?>
<!-- Generator: Adobe Illustrator 23.1.1, SVG Export Plug-In . SVG Version: 6.00 Build 0)  -->
<svg version="1.1" id="Camada_1" xmlns="http://www.w3.org/2000/svg" xmlns:xlink="http://www.w3.org/1999/xlink" x="0px" y="0px"
	 viewBox="0 0 30 8.65" style="enable-background:new 0 0 30 8.65;" xml:space="preserve">
<style type="text/css">
	.st0{fill:#FFFFFF;}
</style>
<g>
	<path class="st0" d="M9.93,2.09L6.76,0.88C6.68,0.85,6.6,0.89,6.57,0.96C6.54,1.04,6.58,1.13,6.66,1.16l2.81,1.07L7.52,2.97
		L5.08,1.86c-0.07-0.03-0.16,0-0.2,0.07c-0.03,0.07,0,0.16,0.07,0.2l2.17,0.98L5.01,3.92l-4.45-1.7l4.45-1.7l1.1,0.42
		C6.19,0.98,6.27,0.94,6.3,0.86C6.33,0.79,6.29,0.7,6.22,0.67L5.07,0.23C5.03,0.22,5,0.22,4.96,0.23L0.1,2.09
		C0.04,2.11,0,2.17,0,2.23v0.68c0,0.06,0.04,0.12,0.1,0.14l1.52,0.58v0.52c0,0.08,0.07,0.15,0.15,0.15c0.08,0,0.15-0.07,0.15-0.15
		v-0.4L4.96,4.9C4.98,4.91,5,4.91,5.01,4.91s0.04,0,0.05-0.01l2.3-0.88v2.36C6.64,6.76,5.83,6.96,5.01,6.96
		c-1.12,0-2.22-0.38-3.1-1.06V4.74c0-0.08-0.07-0.15-0.15-0.15c-0.08,0-0.15,0.07-0.15,0.15v1.23c0,0.05,0.02,0.09,0.06,0.12
		C2.62,6.84,3.8,7.26,5.01,7.26c0.82,0,1.62-0.19,2.35-0.55v0.6C7.12,7.38,6.95,7.6,6.95,7.86c0,0.31,0.25,0.57,0.57,0.57
		c0.31,0,0.57-0.25,0.57-0.57c0-0.26-0.18-0.48-0.42-0.55V6.56c0.24-0.14,0.48-0.3,0.69-0.47c0.04-0.03,0.06-0.07,0.06-0.12V3.63
		l1.52-0.58c0.06-0.02,0.1-0.08,0.1-0.14V2.23C10.03,2.17,9.99,2.11,9.93,2.09z M7.78,7.86c0,0.15-0.12,0.27-0.27,0.27
		c-0.15,0-0.27-0.12-0.27-0.27c0-0.15,0.12-0.27,0.27-0.27C7.66,7.6,7.78,7.72,7.78,7.86z M0.3,2.44l4.57,1.74v0.36L0.3,2.8V2.44z
		 M5.16,4.55V4.18l2.2-0.84v0.36L5.16,4.55z M8.12,5.9c-0.15,0.11-0.3,0.22-0.45,0.31v-2.3l0.45-0.17V5.9z M7.66,3.59V3.23
		l2.07-0.79V2.8L7.66,3.59z"/>
	<g>
		<path class="st0" d="M15.23,2.64c0.29,0.28,0.45,0.6,0.48,0.95h-0.55c-0.06-0.27-0.18-0.48-0.37-0.64
			c-0.18-0.16-0.44-0.24-0.78-0.24c-0.41,0-0.73,0.15-0.98,0.44c-0.25,0.29-0.37,0.74-0.37,1.34c0,0.49,0.11,0.89,0.34,1.2
			c0.23,0.31,0.56,0.46,1.01,0.46c0.41,0,0.73-0.16,0.94-0.48c0.11-0.17,0.2-0.39,0.26-0.67h0.55c-0.05,0.44-0.21,0.81-0.49,1.11
			c-0.33,0.36-0.77,0.54-1.33,0.54c-0.48,0-0.89-0.15-1.21-0.44c-0.43-0.39-0.65-0.99-0.65-1.81c0-0.62,0.16-1.13,0.49-1.52
			c0.35-0.43,0.83-0.65,1.45-0.65C14.54,2.22,14.94,2.35,15.23,2.64z"/>
		<path class="st0" d="M16.94,3.47V5.5c0,0.16,0.02,0.28,0.07,0.38c0.09,0.18,0.25,0.27,0.5,0.27c0.35,0,0.59-0.16,0.71-0.48
			c0.07-0.17,0.1-0.41,0.1-0.71v-1.5h0.51v3.06h-0.49l0.01-0.45c-0.07,0.12-0.15,0.21-0.24,0.29c-0.19,0.16-0.43,0.24-0.7,0.24
			c-0.43,0-0.72-0.15-0.87-0.44c-0.08-0.16-0.13-0.36-0.13-0.62V3.47H16.94z"/>
		<path class="st0" d="M19.69,3.47h0.49v0.53c0.04-0.1,0.14-0.23,0.29-0.38s0.34-0.22,0.54-0.22c0.01,0,0.03,0,0.05,0
			c0.02,0,0.06,0.01,0.12,0.01v0.54c-0.03-0.01-0.06-0.01-0.08-0.01c-0.03,0-0.05,0-0.08,0c-0.26,0-0.46,0.08-0.6,0.25
			S20.2,4.55,20.2,4.77v1.76h-0.51V3.47z"/>
		<path class="st0" d="M21.93,5.57c0.02,0.17,0.06,0.3,0.13,0.39c0.13,0.17,0.36,0.25,0.69,0.25c0.19,0,0.37-0.04,0.51-0.12
			C23.41,6,23.48,5.87,23.48,5.7c0-0.13-0.06-0.23-0.18-0.3c-0.08-0.04-0.22-0.09-0.45-0.15l-0.42-0.1
			c-0.26-0.06-0.46-0.14-0.59-0.22c-0.22-0.14-0.34-0.33-0.34-0.58c0-0.29,0.11-0.52,0.32-0.7c0.21-0.18,0.5-0.27,0.85-0.27
			c0.47,0,0.8,0.14,1.01,0.41c0.13,0.17,0.19,0.36,0.19,0.55H23.4c-0.01-0.12-0.05-0.22-0.12-0.32c-0.12-0.13-0.33-0.2-0.63-0.2
			c-0.2,0-0.35,0.04-0.45,0.11c-0.1,0.07-0.15,0.17-0.15,0.29c0,0.13,0.07,0.24,0.2,0.32c0.08,0.05,0.19,0.09,0.34,0.13l0.35,0.08
			c0.38,0.09,0.63,0.18,0.76,0.26c0.2,0.13,0.3,0.34,0.3,0.62c0,0.27-0.1,0.51-0.31,0.71c-0.21,0.2-0.53,0.3-0.96,0.3
			c-0.46,0-0.79-0.1-0.98-0.31c-0.19-0.21-0.29-0.46-0.31-0.77H21.93z"/>
		<path class="st0" d="M26.76,3.77c0.27,0.26,0.41,0.65,0.41,1.16c0,0.49-0.12,0.9-0.36,1.22c-0.24,0.32-0.61,0.48-1.11,0.48
			c-0.42,0-0.75-0.14-1-0.43c-0.25-0.28-0.37-0.67-0.37-1.15c0-0.51,0.13-0.92,0.39-1.23c0.26-0.3,0.61-0.46,1.04-0.46
			C26.16,3.38,26.49,3.51,26.76,3.77z M26.44,5.8c0.12-0.26,0.19-0.54,0.19-0.86c0-0.29-0.04-0.52-0.14-0.7
			c-0.14-0.28-0.39-0.42-0.74-0.42c-0.31,0-0.54,0.12-0.68,0.36c-0.14,0.24-0.21,0.53-0.21,0.87c0,0.33,0.07,0.6,0.21,0.81
			c0.14,0.22,0.37,0.33,0.67,0.33C26.09,6.19,26.32,6.06,26.44,5.8z"/>
		<path class="st0" d="M28.11,5.57c0.02,0.17,0.06,0.3,0.13,0.39c0.13,0.17,0.36,0.25,0.69,0.25c0.19,0,0.37-0.04,0.51-0.12
			C29.59,6,29.66,5.87,29.66,5.7c0-0.13-0.06-0.23-0.18-0.3c-0.08-0.04-0.22-0.09-0.45-0.15l-0.42-0.1
			c-0.26-0.06-0.46-0.14-0.59-0.22C27.81,4.8,27.7,4.6,27.7,4.36c0-0.29,0.11-0.52,0.32-0.7c0.21-0.18,0.5-0.27,0.85-0.27
			c0.47,0,0.8,0.14,1.01,0.41c0.13,0.17,0.19,0.36,0.19,0.55h-0.49c-0.01-0.12-0.05-0.22-0.12-0.32c-0.12-0.13-0.33-0.2-0.63-0.2
			c-0.2,0-0.35,0.04-0.45,0.11c-0.1,0.07-0.15,0.17-0.15,0.29c0,0.13,0.07,0.24,0.2,0.32c0.08,0.05,0.19,0.09,0.34,0.13l0.35,0.08
			c0.38,0.09,0.63,0.18,0.76,0.26c0.2,0.13,0.3,0.34,0.3,0.62c0,0.27-0.1,0.51-0.31,0.71c-0.21,0.2-0.53,0.3-0.96,0.3
			c-0.46,0-0.79-0.1-0.98-0.31c-0.19-0.21-0.29-0.46-0.31-0.77H28.11z"/>
	</g>
</g>
</svg>
