<?xml version="1.0" encoding="utf-8"?>
<!-- Generator: Adobe Illustrator 23.1.1, SVG Export Plug-In . SVG Version: 6.00 Build 0)  -->
<svg version="1.1" id="Camada_1" xmlns="http://www.w3.org/2000/svg" xmlns:xlink="http://www.w3.org/1999/xlink" x="0px" y="0px"
	 viewBox="0 0 160 64" style="enable-background:new 0 0 160 64;" xml:space="preserve">
<style type="text/css">
	.st0{fill:#E8EAF6;}
	.st1{fill:#55ACEE;}
	.st2{fill:#FFFFFF;}
	.st3{fill:#6A453B;}
	.st4{fill:#DC4E41;}
	.st5{fill:#3B5998;}
	.st6{fill:#FF1E00;}
</style>
<g>
	<path class="st0" d="M80,0c-8.84,0-16,7.17-16,16c0,8.84,7.16,16,16,16c8.83,0,16-7.16,16-16C96,7.17,88.83,0,80,0z M87.89,13.48
		c0,0.17,0.01,0.33,0.01,0.5c0,5.05-3.85,10.88-10.88,10.88c-2.16,0-4.17-0.63-5.86-1.72c0.29,0.04,0.6,0.05,0.91,0.05
		c1.79,0,3.44-0.61,4.75-1.63c-1.68-0.03-3.09-1.14-3.58-2.66c0.24,0.05,0.48,0.07,0.72,0.07c0.35,0,0.69-0.05,1.01-0.14
		c-1.75-0.35-3.07-1.89-3.07-3.74v-0.05c0.52,0.28,1.11,0.46,1.74,0.48c-1.03-0.69-1.7-1.86-1.7-3.19c0-0.7,0.18-1.36,0.51-1.92
		c1.89,2.31,4.71,3.84,7.89,4c-0.07-0.28-0.1-0.58-0.1-0.88c0-2.11,1.71-3.82,3.82-3.82c1.1,0,2.1,0.46,2.79,1.21
		c0.87-0.17,1.69-0.49,2.43-0.93c-0.29,0.89-0.89,1.64-1.68,2.11c0.77-0.09,1.51-0.29,2.2-0.6C89.28,12.27,88.64,12.94,87.89,13.48z
		"/>
</g>
<g>
	<path class="st0" d="M148.77,8.52h-9.54c-1.53,0-2.76,1.24-2.76,2.76v9.54c0,1.52,1.23,2.76,2.76,2.76h9.54
		c1.52,0,2.76-1.24,2.76-2.76v-9.54C151.53,9.76,150.29,8.52,148.77,8.52z M144,21.01c-2.74,0-4.96-2.23-4.96-4.96
		c0-2.74,2.22-4.96,4.96-4.96c2.73,0,4.95,2.22,4.95,4.96C148.95,18.78,146.73,21.01,144,21.01z M149.11,12.11
		c-0.64,0-1.17-0.52-1.17-1.17c0-0.64,0.53-1.17,1.17-1.17c0.65,0,1.18,0.53,1.18,1.17C150.29,11.59,149.76,12.11,149.11,12.11z"/>
	<path class="st0" d="M144,13.19c-1.58,0-2.87,1.28-2.87,2.86s1.29,2.86,2.87,2.86c1.57,0,2.86-1.28,2.86-2.86
		S145.57,13.19,144,13.19z"/>
	<path class="st0" d="M144,0c-8.84,0-16,7.17-16,16c0,8.84,7.16,16,16,16c8.83,0,16-7.16,16-16C160,7.17,152.83,0,144,0z
		 M153.62,20.82c0,2.68-2.18,4.85-4.85,4.85h-9.54c-2.68,0-4.86-2.17-4.86-4.85v-9.54c0-2.68,2.18-4.86,4.86-4.86h9.54
		c2.67,0,4.85,2.18,4.85,4.86V20.82z"/>
</g>
<g>
	<path class="st0" d="M112,0c-8.84,0-16,7.17-16,16c0,8.84,7.16,16,16,16c8.83,0,16-7.16,16-16C128,7.17,120.83,0,112,0z
		 M113.13,21.06c-1.64,2.11-4.66,2.72-7.12,1.9c-2.6-0.86-4.5-3.49-4.44-6.24c-0.13-3.4,2.85-6.55,6.25-6.59
		c1.74-0.14,3.42,0.53,4.74,1.63c-0.54,0.59-1.09,1.18-1.67,1.73c-1.16-0.71-2.55-1.24-3.9-0.77c-2.18,0.62-3.5,3.2-2.7,5.33
		c0.67,2.23,3.38,3.45,5.5,2.51c1.1-0.39,1.83-1.4,2.15-2.49c-1.26-0.03-2.52-0.01-3.78-0.05c-0.01-0.75-0.01-1.49-0.01-2.24
		c1.05-0.01,2.1-0.01,3.15-0.01c1.06,0,2.11,0.01,3.16,0.02C114.59,17.63,114.32,19.59,113.13,21.06z M122.33,17.66
		c-0.63,0-1.26,0-1.89,0.01c0,0.63-0.01,1.25-0.01,1.88h-1.88c0-0.63,0-1.25-0.01-1.88c-0.63-0.01-1.26-0.01-1.88-0.01v-1.88
		c0.62,0,1.25-0.01,1.88-0.01c0-0.63,0.01-1.26,0.02-1.89c0.62,0,1.24,0,1.87,0.01c0,0.63,0.01,1.25,0.01,1.88
		c0.63,0,1.26,0.01,1.89,0.01V17.66z"/>
	<path class="st0" d="M118.55,19.55v0.01c0.63,0,1.25-0.01,1.88,0v-0.01H118.55z"/>
	<path class="st0" d="M111.3,15.77c1.06,0,2.11,0.01,3.16,0.02v-0.01C113.41,15.77,112.36,15.77,111.3,15.77z"/>
	<path class="st0" d="M118.56,13.88c0.62,0,1.24,0,1.87,0.01v-0.01H118.56z"/>
</g>
<g>
	<path class="st0" d="M16,0.05c-8.84,0-16,7.16-16,16c0,8.83,7.16,16,16,16c8.83,0,16-7.17,16-16C32,7.21,24.83,0.05,16,0.05z
		 M20.4,9.84h-2.32c-0.38,0-0.92,0.19-0.92,1V13h3.24l-0.38,3.68h-2.86v10.45h-4.32V16.68h-2.06V13h2.06v-2.38
		c0-1.7,0.8-4.36,4.36-4.36l3.2,0.01V9.84z"/>
</g>
<g>
	<path class="st0" d="M46.01,19l5.2-3l-5.2-3V19z"/>
	<path class="st0" d="M48,0c-8.84,0-16,7.16-16,16s7.16,16,16,16s16-7.16,16-16S56.84,0,48,0z M58,16.02c0,0,0,3.24-0.41,4.81
		c-0.23,0.86-0.91,1.53-1.76,1.76C54.26,23,48,23,48,23s-6.24,0-7.82-0.43c-0.86-0.23-1.53-0.91-1.76-1.76C38,19.27,38,16,38,16
		s0-3.24,0.41-4.81c0.23-0.86,0.92-1.55,1.76-1.78C41.74,9,48,9,48,9s6.26,0,7.82,0.43c0.86,0.23,1.53,0.91,1.76,1.76
		C58.01,12.76,58,16.02,58,16.02z"/>
</g>
<g>
	<path class="st1" d="M96,48.05c0,8.84-7.16,16-16,16s-16-7.16-16-16c0-8.84,7.16-16,16-16S96,39.21,96,48.05L96,48.05z M96,48.05"
		/>
	<path class="st2" d="M89.8,43.55c-0.69,0.3-1.42,0.51-2.2,0.6c0.79-0.47,1.4-1.22,1.68-2.12c-0.74,0.44-1.56,0.76-2.43,0.93
		c-0.7-0.74-1.69-1.21-2.79-1.21c-2.11,0-3.82,1.71-3.82,3.82c0,0.3,0.03,0.59,0.1,0.87c-3.18-0.16-6-1.68-7.88-4
		c-0.33,0.57-0.52,1.22-0.52,1.92c0,1.33,0.68,2.5,1.7,3.18c-0.63-0.02-1.22-0.19-1.73-0.48c0,0.02,0,0.03,0,0.05
		c0,1.85,1.32,3.4,3.07,3.75c-0.32,0.09-0.66,0.14-1.01,0.14c-0.25,0-0.49-0.02-0.72-0.07c0.49,1.52,1.9,2.63,3.57,2.66
		c-1.31,1.03-2.96,1.64-4.75,1.64c-0.31,0-0.61-0.02-0.91-0.05c1.69,1.08,3.7,1.72,5.86,1.72c7.03,0,10.88-5.83,10.88-10.88
		c0-0.17,0-0.33-0.01-0.49C88.64,44.99,89.29,44.31,89.8,43.55L89.8,43.55z M89.8,43.55"/>
</g>
<g>
	<path class="st3" d="M148.77,40.52h-9.54c-1.53,0-2.76,1.24-2.76,2.76v9.54c0,1.52,1.23,2.76,2.76,2.76h9.54
		c1.52,0,2.76-1.24,2.76-2.76v-9.54C151.53,41.76,150.29,40.52,148.77,40.52z M144,53.01c-2.74,0-4.96-2.23-4.96-4.96
		c0-2.74,2.22-4.96,4.96-4.96c2.73,0,4.95,2.22,4.95,4.96C148.95,50.78,146.73,53.01,144,53.01z M149.11,44.11
		c-0.64,0-1.17-0.52-1.17-1.17c0-0.64,0.53-1.17,1.17-1.17c0.65,0,1.18,0.53,1.18,1.17C150.29,43.59,149.76,44.11,149.11,44.11z"/>
	<path class="st3" d="M144,45.19c-1.58,0-2.87,1.28-2.87,2.86s1.29,2.86,2.87,2.86c1.57,0,2.86-1.28,2.86-2.86
		S145.57,45.19,144,45.19z"/>
	<path class="st3" d="M144,32c-8.84,0-16,7.17-16,16c0,8.84,7.16,16,16,16c8.83,0,16-7.16,16-16C160,39.17,152.83,32,144,32z
		 M153.62,52.82c0,2.67-2.18,4.85-4.85,4.85h-9.54c-2.68,0-4.86-2.18-4.86-4.85v-9.54c0-2.68,2.18-4.86,4.86-4.86h9.54
		c2.67,0,4.85,2.18,4.85,4.86V52.82z"/>
	<path class="st2" d="M148.77,38.42h-9.54c-2.68,0-4.86,2.18-4.86,4.86v9.54c0,2.67,2.18,4.85,4.86,4.85h9.54
		c2.67,0,4.85-2.18,4.85-4.85v-9.54C153.62,40.6,151.44,38.42,148.77,38.42z M151.53,52.82c0,1.52-1.24,2.76-2.76,2.76h-9.54
		c-1.53,0-2.76-1.24-2.76-2.76v-9.54c0-1.52,1.23-2.76,2.76-2.76h9.54c1.52,0,2.76,1.24,2.76,2.76V52.82z"/>
	<path class="st2" d="M150.29,42.94c0,0.65-0.53,1.17-1.18,1.17c-0.64,0-1.17-0.52-1.17-1.17c0-0.64,0.53-1.17,1.17-1.17
		C149.76,41.77,150.29,42.3,150.29,42.94z"/>
	<path class="st2" d="M144,43.09c-2.74,0-4.96,2.22-4.96,4.96c0,2.73,2.22,4.96,4.96,4.96c2.73,0,4.95-2.23,4.95-4.96
		C148.95,45.31,146.73,43.09,144,43.09z M144,50.91c-1.58,0-2.87-1.28-2.87-2.86s1.29-2.86,2.87-2.86c1.57,0,2.86,1.28,2.86,2.86
		S145.57,50.91,144,50.91z"/>
</g>
<g>
	<path class="st4" d="M128,48.05c0,8.84-7.16,16-16,16s-16-7.16-16-16c0-8.84,7.16-16,16-16S128,39.21,128,48.05L128,48.05z
		 M128,48.05"/>
	<path class="st4" d="M101.57,48.76c-0.06,2.75,1.84,5.38,4.45,6.24c2.46,0.83,5.48,0.21,7.11-1.9c1.19-1.47,1.46-3.44,1.34-5.28
		c-2.1-0.02-4.21-0.01-6.31-0.01c0,0.75,0,1.5,0,2.24c1.26,0.03,2.52,0.02,3.78,0.04c-0.32,1.09-1.04,2.1-2.14,2.5
		c-2.12,0.93-4.83-0.29-5.5-2.51c-0.81-2.13,0.51-4.71,2.69-5.33c1.35-0.47,2.74,0.06,3.9,0.76c0.58-0.55,1.13-1.13,1.67-1.73
		c-1.31-1.1-3-1.77-4.74-1.63C104.42,42.22,101.44,45.36,101.57,48.76L101.57,48.76z M101.57,48.76"/>
	<path class="st4" d="M118.56,45.93c-0.01,0.63-0.01,1.26-0.02,1.88c-0.63,0.01-1.26,0.01-1.88,0.01v1.88
		c0.63,0,1.26,0.01,1.88,0.01c0.01,0.63,0.01,1.25,0.01,1.88c0.62,0,1.25,0,1.88,0c0-0.63,0.01-1.26,0.01-1.89
		c0.63,0,1.26-0.01,1.88-0.01v-1.88c-0.63,0-1.26-0.01-1.88-0.01c0-0.63-0.01-1.26-0.01-1.88
		C119.81,45.93,119.18,45.93,118.56,45.93L118.56,45.93z M118.56,45.93"/>
	<path class="st2" d="M101.57,48.76c-0.13-3.4,2.85-6.55,6.26-6.59c1.74-0.15,3.42,0.53,4.74,1.63c-0.54,0.59-1.09,1.18-1.67,1.73
		c-1.16-0.7-2.55-1.24-3.9-0.76c-2.18,0.62-3.5,3.19-2.69,5.33c0.67,2.23,3.38,3.45,5.5,2.51c1.1-0.39,1.82-1.41,2.14-2.5
		c-1.26-0.02-2.52-0.01-3.78-0.04c0-0.75-0.01-1.5,0-2.24c2.1,0,4.21-0.01,6.31,0.01c0.13,1.84-0.14,3.8-1.34,5.28
		c-1.63,2.1-4.65,2.72-7.11,1.9C103.41,54.14,101.51,51.52,101.57,48.76L101.57,48.76z M101.57,48.76"/>
	<path class="st2" d="M118.56,45.93h1.87c0,0.63,0.01,1.26,0.01,1.88c0.63,0.01,1.26,0.01,1.88,0.01v1.88
		c-0.63,0-1.26,0.01-1.88,0.01c-0.01,0.63-0.01,1.26-0.01,1.89c-0.63,0-1.25,0-1.88,0c-0.01-0.63-0.01-1.26-0.01-1.88
		c-0.63-0.01-1.26-0.01-1.88-0.01v-1.88c0.63,0,1.25-0.01,1.88-0.01C118.55,47.19,118.55,46.56,118.56,45.93L118.56,45.93z
		 M118.56,45.93"/>
</g>
<g>
	<path class="st5" d="M32,48.05c0,8.84-7.16,16-16,16s-16-7.16-16-16s7.16-16,16-16S32,39.21,32,48.05L32,48.05z M32,48.05"/>
	<path class="st2" d="M20.02,48.68h-2.85v10.46h-4.33V48.68h-2.06V45h2.06v-2.38c0-1.7,0.81-4.36,4.36-4.36l3.2,0.01v3.57h-2.32
		c-0.38,0-0.92,0.19-0.92,1V45h3.23L20.02,48.68z M20.02,48.68"/>
</g>
<g>
	<polygon class="st6" points="51.21,48 46,51 46,45.01 	"/>
	<path class="st6" d="M48,32c-8.84,0-16,7.17-16,16c0,8.84,7.16,16,16,16c8.83,0,16-7.16,16-16C64,39.17,56.83,32,48,32z
		 M57.99,48.02c0,0,0,3.25-0.41,4.81c-0.23,0.86-0.9,1.53-1.76,1.76C54.25,55,48,55,48,55s-6.25,0-7.83-0.42
		c-0.85-0.23-1.53-0.91-1.76-1.77C38,51.27,38,48,38,48s0-3.24,0.41-4.81c0.23-0.85,0.92-1.54,1.76-1.77C41.74,41,48,41,48,41
		s6.25,0,7.82,0.43c0.86,0.23,1.53,0.91,1.76,1.76C58.01,44.76,57.99,48.02,57.99,48.02z"/>
	<path class="st2" d="M57.58,43.19c-0.23-0.85-0.9-1.53-1.76-1.76C54.25,41,48,41,48,41s-6.26,0-7.83,0.42
		c-0.84,0.23-1.53,0.92-1.76,1.77C38,44.76,38,48,38,48s0,3.27,0.41,4.81c0.23,0.86,0.91,1.54,1.76,1.77C41.75,55,48,55,48,55
		s6.25,0,7.82-0.41c0.86-0.23,1.53-0.9,1.76-1.76c0.41-1.56,0.41-4.81,0.41-4.81S58.01,44.76,57.58,43.19z M46,51v-5.99L51.21,48
		L46,51z"/>
</g>
</svg>
